<?xml version="1.0" encoding="utf-8"?>
<!-- Generator: Adobe Illustrator 21.0.2, SVG Export Plug-In . SVG Version: 6.00 Build 0)  -->
<svg version="1.2" baseProfile="tiny" id="Blue" xmlns="http://www.w3.org/2000/svg" xmlns:xlink="http://www.w3.org/1999/xlink"
	 x="0px" y="0px" viewBox="0 0 266.9 266.9" overflow="scroll" xml:space="preserve">
<path fill="#3C5A99" d="M133.5,266.9L133.5,266.9C59.7,266.9,0,207.2,0,133.5v0C0,59.7,59.7,0,133.4,0h0
	c73.7,0,133.4,59.7,133.4,133.4v0C266.9,207.2,207.2,266.9,133.5,266.9z"/>
<path id="f" fill="#FFFFFF" d="M155.5,266.9V163.5h34.7l5.2-40.3h-39.9V97.5c0-11.7,3.2-19.6,20-19.6h21.3v-36
	c-3.7-0.5-16.4-1.6-31.1-1.6c-30.8,0-51.8,18.8-51.8,53.2v29.7H79.1v40.3h34.8v103.4H155.5z"/>
</svg>
