<?xml version="1.0" encoding="utf-8"?>
<!-- Generator: Adobe Illustrator 21.0.2, SVG Export Plug-In . SVG Version: 6.00 Build 0)  -->
<svg version="1.2" baseProfile="tiny" id="Calque_1"
	 xmlns="http://www.w3.org/2000/svg" xmlns:xlink="http://www.w3.org/1999/xlink" x="0px" y="0px" viewBox="0 0 32 32"
	 overflow="scroll" xml:space="preserve">
<path d="M16,32L16,32C7.2,32,0,24.8,0,16v0C0,7.2,7.2,0,16,0h0c8.8,0,16,7.2,16,16v0C32,24.8,24.8,32,16,32z"/>
<path fill="#FFFFFF" d="M16,2.2C8.4,2.2,2.3,8.4,2.3,15.9c0,6.1,3.9,11.2,9.4,13c0.7,0.1,0.9-0.3,0.9-0.7c0-0.3,0-1.4,0-2.6
	c-3.4,0.6-4.3-0.8-4.6-1.6c-0.2-0.4-0.8-1.6-1.4-1.9c-0.5-0.3-1.2-0.9,0-0.9c1.1,0,1.9,1,2.1,1.4c1.2,2.1,3.2,1.5,4,1.1
	c0.1-0.9,0.5-1.5,0.9-1.8c-3.1-0.3-6.2-1.5-6.2-6.8c0-1.5,0.5-2.7,1.4-3.7c-0.1-0.3-0.6-1.7,0.1-3.6c0,0,1.1-0.4,3.8,1.4
	C13.7,9,14.9,8.8,16,8.8s2.3,0.2,3.4,0.5c2.6-1.8,3.8-1.4,3.8-1.4c0.8,1.9,0.3,3.3,0.1,3.6c0.9,1,1.4,2.2,1.4,3.7
	c0,5.3-3.2,6.4-6.3,6.8c0.5,0.4,0.9,1.3,0.9,2.5c0,1.8,0,3.3,0,3.8c0,0.4,0.3,0.8,0.9,0.7c5.6-1.9,9.3-7.1,9.3-13
	C29.7,8.4,23.6,2.2,16,2.2z"/>
</svg>
