<?xml version="1.0" encoding="utf-8"?>
<!-- Generator: Adobe Illustrator 21.0.2, SVG Export Plug-In . SVG Version: 6.00 Build 0)  -->
<svg version="1.2" baseProfile="tiny" id="Calque_1"
	 xmlns="http://www.w3.org/2000/svg" xmlns:xlink="http://www.w3.org/1999/xlink" x="0px" y="0px" viewBox="0 0 150 150"
	 overflow="scroll" xml:space="preserve">
<path fill="#225982" d="M75,150L75,150c-41.4,0-75-33.6-75-75l0,0C0,33.6,33.6,0,75,0l0,0c41.4,0,75,33.6,75,75l0,0
	C150,116.4,116.4,150,75,150z"/>
<g>
	<path fill="#FFFFFF" d="M80.1,119.7c-6.5,0-12.7,0-18.9,0c0-20.4,0-40.5,0-61.1c5.8,0,11.3,0,16.9,0.1c0.5,0,1.3,1,1.4,1.6
		c0.2,1.8,0.1,3.5,0.1,6c1.3-1.4,2.2-2.5,3.4-3.5c7.2-6.3,15.7-6.8,24.3-4.1c8.1,2.5,11.7,9,12.3,16.9c0.7,8.6,0.7,17.3,0.8,25.9
		c0.1,6,0,11.9,0,18.2c-6.3,0-12.6,0-19.2,0c0-1,0-2.1,0-3.1c0-9.4,0-18.8,0-28.3c0-2.3-0.3-4.6-0.6-6.8c-0.7-4.2-3.5-6.8-7.3-7.3
		c-5.2-0.7-9.5,1-11.1,5c-1.1,2.6-1.7,5.7-1.8,8.6c-0.3,9.5-0.1,19-0.1,28.5C80.1,117.3,80.1,118.3,80.1,119.7z"/>
	<path fill="#FFFFFF" d="M30.2,58.6c6.3,0,12.4,0,18.7,0c0,20.3,0,40.5,0,60.9c-6.2,0-12.3,0-18.7,0C30.2,99.4,30.2,79.2,30.2,58.6z
		"/>
	<path fill="#FFFFFF" d="M28.4,39.5c0-6.1,4.9-11.1,10.9-11.2c6.2-0.1,11.4,5.1,11.5,11.1c0.1,6.1-5.2,11.3-11.3,11.2
		C33.5,50.7,28.4,45.5,28.4,39.5z"/>
</g>
</svg>
