<?xml version="1.0" encoding="utf-8"?>
<!-- Generator: Adobe Illustrator 21.0.2, SVG Export Plug-In . SVG Version: 6.00 Build 0)  -->
<svg version="1.2" baseProfile="tiny" id="Calque_1"
	 xmlns="http://www.w3.org/2000/svg" xmlns:xlink="http://www.w3.org/1999/xlink" x="0px" y="0px" viewBox="0 0 150 150"
	 overflow="scroll" xml:space="preserve">
<path fill="#6EADDB" d="M75,150L75,150c-41.4,0-75-33.6-75-75v0C0,33.6,33.6,0,75,0h0c41.4,0,75,33.6,75,75v0
	C150,116.4,116.4,150,75,150z"/>
<path fill="#FFFFFF" d="M21.4,110.5c7.2,0.6,14.1-0.2,20.9-2.7c4.4-1.6,8.5-3.8,12.3-6.8c-10.4-0.9-17.3-6.1-21.1-15.9
	c3.4,0.6,6.6,0.5,9.9-0.3c-11.2-3.4-17.2-10.9-17.9-22.7c3.3,1.7,6.5,2.7,10.1,2.9C24.1,56.6,24,42.5,28.9,34.7
	c1.1,1.2,2.2,2.5,3.3,3.7C42.5,49,54.9,55.5,69.5,57.8c1.8,0.3,3.6,0.5,5.4,0.6c0.7,0.1,0.8-0.1,0.7-0.8c-1.3-7.5,0.5-14.1,5.6-19.7
	c8.6-9.5,23.6-9.9,32.7-0.9c0.5,0.5,1,0.7,1.7,0.5c4.4-1,8.5-2.6,12.4-4.8c0.3-0.2,0.6-0.3,1-0.5c-1.8,5.4-5,9.4-9.8,12.5
	c4.6-0.6,8.7-1.8,12.8-3.5c-1.5,2.3-3.1,4.2-4.8,6c-1.8,1.9-3.8,3.7-5.9,5.3c-0.5,0.3-0.6,0.7-0.6,1.3c0.3,18-5.6,33.6-17.7,46.9
	c-9.8,10.7-22.1,17-36.5,19.1c-15.4,2.3-30-0.3-43.5-8.3C22.5,111.1,22,110.8,21.4,110.5z"/>
</svg>
